<mxfile host="app.diagrams.net" modified="2023-11-12T22:58:00.797Z" agent="Mozilla/5.0 (Windows NT 10.0; Win64; x64) AppleWebKit/537.36 (KHTML, like Gecko) Chrome/119.0.0.0 Safari/537.36" etag="8ohfWfrySnuzWDckz--r" version="22.1.0" type="device">
  <diagram name="Page-1" id="fIMaoXD2LQFpVCoE3K3e">
    <mxGraphModel dx="1050" dy="662" grid="1" gridSize="10" guides="1" tooltips="1" connect="1" arrows="1" fold="1" page="1" pageScale="1" pageWidth="850" pageHeight="1100" math="0" shadow="0">
      <root>
        <mxCell id="0" />
        <mxCell id="1" parent="0" />
        <mxCell id="0R3xMACZpZA0Q5DCKCve-14" style="edgeStyle=orthogonalEdgeStyle;rounded=0;orthogonalLoop=1;jettySize=auto;html=1;entryX=0.5;entryY=0;entryDx=0;entryDy=0;" parent="1" source="0R3xMACZpZA0Q5DCKCve-1" target="0R3xMACZpZA0Q5DCKCve-2" edge="1">
          <mxGeometry relative="1" as="geometry" />
        </mxCell>
        <mxCell id="0R3xMACZpZA0Q5DCKCve-1" value="start" style="ellipse;whiteSpace=wrap;html=1;" parent="1" vertex="1">
          <mxGeometry x="290" y="10" width="120" height="80" as="geometry" />
        </mxCell>
        <mxCell id="0R3xMACZpZA0Q5DCKCve-15" style="edgeStyle=orthogonalEdgeStyle;rounded=0;orthogonalLoop=1;jettySize=auto;html=1;" parent="1" source="0R3xMACZpZA0Q5DCKCve-2" target="0R3xMACZpZA0Q5DCKCve-3" edge="1">
          <mxGeometry relative="1" as="geometry" />
        </mxCell>
        <mxCell id="0R3xMACZpZA0Q5DCKCve-2" value="minute,money" style="shape=parallelogram;perimeter=parallelogramPerimeter;whiteSpace=wrap;html=1;fixedSize=1;" parent="1" vertex="1">
          <mxGeometry x="290" y="140" width="120" height="60" as="geometry" />
        </mxCell>
        <mxCell id="0R3xMACZpZA0Q5DCKCve-16" value="true" style="edgeStyle=orthogonalEdgeStyle;rounded=0;orthogonalLoop=1;jettySize=auto;html=1;entryX=0;entryY=0.5;entryDx=0;entryDy=0;" parent="1" source="0R3xMACZpZA0Q5DCKCve-3" target="0R3xMACZpZA0Q5DCKCve-6" edge="1">
          <mxGeometry relative="1" as="geometry" />
        </mxCell>
        <mxCell id="0R3xMACZpZA0Q5DCKCve-17" value="false" style="edgeStyle=orthogonalEdgeStyle;rounded=0;orthogonalLoop=1;jettySize=auto;html=1;entryX=0.5;entryY=0;entryDx=0;entryDy=0;" parent="1" source="0R3xMACZpZA0Q5DCKCve-3" target="0R3xMACZpZA0Q5DCKCve-4" edge="1">
          <mxGeometry relative="1" as="geometry" />
        </mxCell>
        <mxCell id="0R3xMACZpZA0Q5DCKCve-3" value="minute&amp;lt;=50" style="rhombus;whiteSpace=wrap;html=1;" parent="1" vertex="1">
          <mxGeometry x="300" y="240" width="80" height="80" as="geometry" />
        </mxCell>
        <mxCell id="0R3xMACZpZA0Q5DCKCve-18" value="true" style="edgeStyle=orthogonalEdgeStyle;rounded=0;orthogonalLoop=1;jettySize=auto;html=1;entryX=0;entryY=0.5;entryDx=0;entryDy=0;" parent="1" source="0R3xMACZpZA0Q5DCKCve-4" target="0R3xMACZpZA0Q5DCKCve-8" edge="1">
          <mxGeometry relative="1" as="geometry" />
        </mxCell>
        <mxCell id="0R3xMACZpZA0Q5DCKCve-19" value="false" style="edgeStyle=orthogonalEdgeStyle;rounded=0;orthogonalLoop=1;jettySize=auto;html=1;entryX=0.5;entryY=0;entryDx=0;entryDy=0;" parent="1" source="0R3xMACZpZA0Q5DCKCve-4" target="0R3xMACZpZA0Q5DCKCve-5" edge="1">
          <mxGeometry relative="1" as="geometry" />
        </mxCell>
        <mxCell id="0R3xMACZpZA0Q5DCKCve-4" value="minute&amp;lt;=200" style="rhombus;whiteSpace=wrap;html=1;" parent="1" vertex="1">
          <mxGeometry x="300" y="390" width="70" height="80" as="geometry" />
        </mxCell>
        <mxCell id="0R3xMACZpZA0Q5DCKCve-21" value="false" style="edgeStyle=orthogonalEdgeStyle;rounded=0;orthogonalLoop=1;jettySize=auto;html=1;entryX=0.5;entryY=0;entryDx=0;entryDy=0;" parent="1" source="0R3xMACZpZA0Q5DCKCve-5" target="0R3xMACZpZA0Q5DCKCve-7" edge="1">
          <mxGeometry relative="1" as="geometry" />
        </mxCell>
        <mxCell id="0R3xMACZpZA0Q5DCKCve-5" value="minute&amp;lt;=400" style="rhombus;whiteSpace=wrap;html=1;" parent="1" vertex="1">
          <mxGeometry x="300" y="520" width="80" height="80" as="geometry" />
        </mxCell>
        <mxCell id="0R3xMACZpZA0Q5DCKCve-6" value="money=minute*600+25000" style="rounded=0;whiteSpace=wrap;html=1;" parent="1" vertex="1">
          <mxGeometry x="425" y="250" width="165" height="60" as="geometry" />
        </mxCell>
        <mxCell id="0R3xMACZpZA0Q5DCKCve-22" value="true" style="edgeStyle=orthogonalEdgeStyle;rounded=0;orthogonalLoop=1;jettySize=auto;html=1;entryX=0;entryY=0.75;entryDx=0;entryDy=0;" parent="1" source="0R3xMACZpZA0Q5DCKCve-7" target="0R3xMACZpZA0Q5DCKCve-10" edge="1">
          <mxGeometry relative="1" as="geometry" />
        </mxCell>
        <mxCell id="0R3xMACZpZA0Q5DCKCve-23" value="true" style="edgeStyle=orthogonalEdgeStyle;rounded=0;orthogonalLoop=1;jettySize=auto;html=1;entryX=0.5;entryY=0;entryDx=0;entryDy=0;" parent="1" source="0R3xMACZpZA0Q5DCKCve-7" target="0R3xMACZpZA0Q5DCKCve-12" edge="1">
          <mxGeometry relative="1" as="geometry" />
        </mxCell>
        <mxCell id="0R3xMACZpZA0Q5DCKCve-7" value="minute&amp;gt;400" style="rhombus;whiteSpace=wrap;html=1;" parent="1" vertex="1">
          <mxGeometry x="300" y="640" width="80" height="80" as="geometry" />
        </mxCell>
        <mxCell id="0R3xMACZpZA0Q5DCKCve-8" value="money =(50*600+(minute-50)*400)+25000&amp;nbsp;" style="rounded=0;whiteSpace=wrap;html=1;" parent="1" vertex="1">
          <mxGeometry x="425" y="400" width="165" height="60" as="geometry" />
        </mxCell>
        <mxCell id="0R3xMACZpZA0Q5DCKCve-9" value="money=(50*600+150*400+(minute-200)*200)+25000" style="rounded=0;whiteSpace=wrap;html=1;" parent="1" vertex="1">
          <mxGeometry x="425" y="520" width="155" height="60" as="geometry" />
        </mxCell>
        <mxCell id="0R3xMACZpZA0Q5DCKCve-10" value="money=(50*600+150*400+200*200+(minute-400)*100)+25000" style="rounded=0;whiteSpace=wrap;html=1;" parent="1" vertex="1">
          <mxGeometry x="425" y="640" width="155" height="60" as="geometry" />
        </mxCell>
        <mxCell id="0R3xMACZpZA0Q5DCKCve-24" style="edgeStyle=orthogonalEdgeStyle;rounded=0;orthogonalLoop=1;jettySize=auto;html=1;entryX=0.5;entryY=0;entryDx=0;entryDy=0;" parent="1" source="0R3xMACZpZA0Q5DCKCve-12" target="0R3xMACZpZA0Q5DCKCve-13" edge="1">
          <mxGeometry relative="1" as="geometry" />
        </mxCell>
        <mxCell id="0R3xMACZpZA0Q5DCKCve-12" value="money&amp;nbsp;" style="rounded=0;whiteSpace=wrap;html=1;" parent="1" vertex="1">
          <mxGeometry x="280" y="770" width="120" height="60" as="geometry" />
        </mxCell>
        <mxCell id="0R3xMACZpZA0Q5DCKCve-13" value="end" style="ellipse;whiteSpace=wrap;html=1;" parent="1" vertex="1">
          <mxGeometry x="280" y="870" width="120" height="80" as="geometry" />
        </mxCell>
        <mxCell id="0R3xMACZpZA0Q5DCKCve-20" value="true" style="edgeStyle=orthogonalEdgeStyle;rounded=0;orthogonalLoop=1;jettySize=auto;html=1;entryX=0.008;entryY=0.64;entryDx=0;entryDy=0;entryPerimeter=0;" parent="1" source="0R3xMACZpZA0Q5DCKCve-5" target="0R3xMACZpZA0Q5DCKCve-9" edge="1">
          <mxGeometry relative="1" as="geometry" />
        </mxCell>
      </root>
    </mxGraphModel>
  </diagram>
</mxfile>
